<svg width="125" height="102" viewBox="0 0 125 102" fill="none" xmlns="http://www.w3.org/2000/svg">
<g clip-path="url(#clip0_1088_1199)">
<path d="M2.00356 86.6384H106.286H122.672" fill="white"/>
<path d="M2.00356 86.6384H106.286H122.672" stroke="#1D1E1E" stroke-width="1.59091" stroke-miterlimit="10" stroke-linecap="round"/>
<path d="M26.4088 71.4512H31.4796C32.5003 71.4512 33.4793 71.8547 34.2011 72.5729C34.9229 73.2912 35.3284 74.2654 35.3284 75.2811V81.9835C35.3284 83.3536 34.7814 84.6675 33.8079 85.6362C32.8344 86.6049 31.5141 87.1492 30.1373 87.1492H27.7318C26.3568 87.1466 25.0389 86.6013 24.0674 85.6328C23.096 84.6643 22.5504 83.3519 22.5504 81.9835V75.2811C22.5504 74.7774 22.6503 74.2786 22.8443 73.8133C23.0383 73.348 23.3227 72.9253 23.6811 72.5696C24.0395 72.2138 24.4649 71.9319 24.933 71.74C25.4011 71.5481 25.9026 71.4499 26.4088 71.4512Z" fill="white" stroke="#1D1E1E" stroke-width="1.59091" stroke-miterlimit="10"/>
<path d="M84.8056 71.4512H89.8811C90.9019 71.4512 91.8809 71.8547 92.6026 72.5729C93.3244 73.2912 93.7299 74.2654 93.7299 75.2811V81.9835C93.7299 83.3535 93.183 84.6674 92.2095 85.6362C91.236 86.6049 89.9156 87.1492 88.5389 87.1492H86.1334C84.7592 87.1454 83.4425 86.5995 82.4721 85.6311C81.5017 84.6628 80.9568 83.3511 80.9568 81.9835V75.2811C80.9568 74.2654 81.3623 73.2912 82.0841 72.5729C82.8059 71.8547 83.7848 71.4512 84.8056 71.4512Z" fill="white" stroke="#1D1E1E" stroke-width="1.59091" stroke-miterlimit="10"/>
<path d="M96.2845 52.4496C96.4567 52.2372 96.6066 52.0078 96.7319 51.765C97.1577 50.9233 97.3361 49.9791 97.2467 49.041C97.1524 48.1999 96.8311 47.3998 96.317 46.7255C95.8029 46.0513 95.1151 45.528 94.3265 45.211C93.9111 45.0437 93.4736 44.9373 93.0275 44.8951C92.3766 44.833 91.7198 44.9071 91.0993 45.1125C90.4789 45.3179 89.9084 45.6501 89.4246 46.0878C88.9408 46.5256 88.5543 47.0591 88.2899 47.6543C88.0255 48.2494 87.8891 48.893 87.8894 49.5437C87.89 49.7037 87.8996 49.8635 87.9182 50.0224C88.0318 50.9318 87.983 51.854 87.7739 52.7465L87.4323 54.1061C87.3988 54.2365 87.4009 54.3734 87.4384 54.5028C87.4758 54.6321 87.5472 54.7492 87.6453 54.8418C87.7433 54.9345 87.8644 54.9995 87.9962 55.0301C88.1279 55.0607 88.2654 55.0557 88.3945 55.0157L90.4007 54.4556C91.1197 54.2685 91.8612 54.1814 92.6041 54.1971C93.3088 54.1918 94.0036 54.0326 94.6396 53.7306C95.2756 53.4287 95.8371 52.9914 96.2845 52.4496Z" fill="#FF7300" stroke="#1D1E1E" stroke-width="1.59091" stroke-miterlimit="10" stroke-linecap="round"/>
<path d="M18.6844 52.4499C18.5138 52.2373 18.3655 52.0079 18.2418 51.7652C17.8067 50.928 17.6198 49.9849 17.703 49.046C17.7973 48.2049 18.1186 47.4048 18.6327 46.7305C19.1468 46.0563 19.8346 45.533 20.6232 45.2161C21.0386 45.0487 21.4761 44.9423 21.9222 44.9001C22.5731 44.838 23.2299 44.9121 23.8504 45.1175C24.4708 45.3229 25.0413 45.6551 25.5251 46.0928C26.0089 46.5306 26.3954 47.0641 26.6598 47.6593C26.9242 48.2544 27.0606 48.898 27.0603 49.5487C27.0597 49.7087 27.0501 49.8685 27.0315 50.0274C26.9179 50.9368 26.9667 51.859 27.1758 52.7515L27.5174 54.1111C27.5509 54.2415 27.5488 54.3784 27.5114 54.5077C27.4739 54.637 27.4025 54.7542 27.3045 54.8469C27.2064 54.9395 27.0853 55.0045 26.9536 55.0351C26.8218 55.0657 26.6843 55.0607 26.5552 55.0207L24.549 54.4606C23.8317 54.2737 23.0917 54.1868 22.3504 54.2021C21.6449 54.1975 20.9491 54.0386 20.3123 53.7366C19.6754 53.4346 19.1131 52.997 18.6652 52.4547L18.6844 52.4499Z" fill="white" stroke="#1D1E1E" stroke-width="1.59091" stroke-miterlimit="10" stroke-linecap="round"/>
<path d="M89.3149 52.0572L83.6909 36.6799C82.7394 34.6362 81.2179 32.9075 79.3073 31.6997C77.3968 30.492 75.1777 29.8559 72.9143 29.8673H41.7777C39.7079 29.8596 37.6721 30.3912 35.8726 31.4092C34.0732 32.4271 32.5729 33.8959 31.5207 35.6697L24.4823 52.5454L89.3149 52.0572Z" fill="#FF7300" stroke="#1D1E1E" stroke-width="1.59091" stroke-miterlimit="10"/>
<path d="M92.2169 77.852C69.1794 79.0872 46.0918 79.0872 23.0544 77.852C20.2929 77.852 18.0509 75.9992 18.0509 73.7108V62.063C18.0509 55.9207 24.0647 50.9418 31.488 50.9418H83.7784C91.1969 50.9418 97.2155 55.9207 97.2155 62.063V73.7108C97.2203 75.9992 94.9784 77.852 92.2169 77.852Z" fill="white" stroke="#1D1E1E" stroke-width="1.59091" stroke-miterlimit="10"/>
<path d="M74.466 68.6696C63.5189 69.4451 52.5302 69.4451 41.5831 68.6696H74.466Z" fill="white"/>
<path d="M74.466 68.6696C63.5189 69.4451 52.5302 69.4451 41.5831 68.6696" stroke="#1D1E1E" stroke-width="1.59091" stroke-miterlimit="10" stroke-linecap="round"/>
<path d="M33.7955 58.769H30.0285C28.1102 58.769 26.555 60.3166 26.555 62.2256V63.3075C26.555 65.2165 28.1102 66.7641 30.0285 66.7641H33.7955C35.7139 66.7641 37.2691 65.2165 37.2691 63.3075V62.2256C37.2691 60.3166 35.7139 58.769 33.7955 58.769Z" fill="#FF7300" stroke="#1D1E1E" stroke-width="1.59091" stroke-miterlimit="10"/>
<path d="M86.3652 58.769H82.5983C80.6799 58.769 79.1247 60.3166 79.1247 62.2256V63.3075C79.1247 65.2165 80.6799 66.7641 82.5983 66.7641H86.3652C88.2836 66.7641 89.8388 65.2165 89.8388 63.3075V62.2256C89.8388 60.3166 88.2836 58.769 86.3652 58.769Z" fill="#318FCC" stroke="#1D1E1E" stroke-width="1.59091" stroke-miterlimit="10"/>
<path d="M103.893 44.5638C104.509 44.6705 105.065 44.9793 105.465 45.4361C105.865 45.8929 106.083 46.4686 106.081 47.0625V62.9123C106.118 67.3738 104.822 71.754 102.343 75.5455C99.8645 79.337 96.3042 82.3845 92.0749 84.3351C90.4023 85.0761 88.5296 86.1445 86.8862 86.1445C85.2427 86.1445 83.3674 85.0761 81.6934 84.3351C77.4647 82.3838 73.905 79.336 71.4263 75.5447C68.9476 71.7534 67.6514 67.3736 67.6876 62.9123V47.0625C67.6862 46.4683 67.9049 45.8925 68.3055 45.4357C68.7062 44.979 69.2633 44.6704 69.8795 44.5638C74.6637 43.7571 80.3807 42.1826 85.4167 39.1239C85.8545 38.8572 86.3639 38.7155 86.8842 38.7155C87.4044 38.7155 87.9138 38.8572 88.3516 39.1239C93.3917 42.1944 99.1087 43.761 103.893 44.5638Z" fill="white" stroke="#1D1E1E" stroke-width="1.59091" stroke-miterlimit="10"/>
<path d="M79.7172 63.1679L86.3722 68.2621L95.5869 54.5077" stroke="#1D1E1E" stroke-width="1.59091" stroke-miterlimit="10" stroke-linecap="round"/>
</g>
<defs>
<clipPath id="clip0_1088_1199">
<rect width="122.727" height="72.7273" fill="white" transform="translate(1.13636 14.7727)"/>
</clipPath>
</defs>
</svg>
