<svg xmlns="http://www.w3.org/2000/svg" width="110" height="110" xmlns:v="https://vecta.io/nano"><defs><linearGradient x1="50%" y1="0%" x2="50%" y2="100%" id="A"><stop stop-color="#590f85" offset="0%"/><stop stop-color="#9237cd" offset="100%"/></linearGradient></defs><path d="M79.215 20a10 10 0 0 1 9.114 5.884l.117.27 9.101 21.845h.113L97.661 45a3 3 0 0 1 2.824-2.995l.176-.005H108a2 2 0 0 1 1.995 1.851L110 44v5a3 3 0 0 1-2.824 2.995L107 52l-7.77-.001 2.682 6.374c1.662 3.95 2.349 8.298 1.999 12.616l-.049.54-.021.216c.105.407.159.828.159 1.255h0v32a5 5 0 0 1-5 5h0-8.622a5 5 0 0 1-5-5h0l-.002-5.001H24.621l.001 5.001a5 5 0 0 1-4.783 4.995l-.217.005H11a5 5 0 0 1-5-5h0V73c0-.427.054-.848.159-1.255l-.021-.216c-.436-4.315.167-8.677 1.747-12.659l.203-.496 2.681-6.374L3 52l-.176-.005A3 3 0 0 1 0 49h0v-5l.005-.149A2 2 0 0 1 2 42h0 7.339l.176.005A3 3 0 0 1 12.339 45h0l.001 2.999h.27l8.954-21.799A10 10 0 0 1 30.814 20a2 2 0 0 1 .149 3.995l-.149.005a6 6 0 0 0-5.45 3.49l-.1.23-8.317 20.247 61.553.001a2 2 0 0 1 .149 3.995l-.149.005H15.122l-3.347 7.956c-1.404 3.337-1.991 7.019-1.704 10.679l.047.523 1.656 16.376.033.293a10.61 10.61 0 0 0 .14.838c.031.147.064.292.101.435l.038.144a10.37 10.37 0 0 0 .135.459c1.172 3.661 4.266 6.212 7.813 6.326l.248.004 4.34-.001h-.001H29V92a6 6 0 0 1 5.775-5.996L35 86h40a6 6 0 0 1 5.996 5.775L81 92v3.999h4.376.001l4.341.001.249-.004c.239-.008.477-.027.711-.056.371-.047.734-.119 1.09-.217.095-.026.19-.054.284-.084a7.87 7.87 0 0 0 .386-.133c.078-.029.156-.06.233-.091 2.874-1.181 5.065-4.04 5.521-7.608l.032-.279 1.659-16.401c.37-3.657-.136-7.353-1.462-10.722l-.195-.479-3.636-8.641-.062-.132-9.773-23.459a6 6 0 0 0-5.289-3.687l-.25-.005a2 2 0 1 1 0-4zM10 94.233V105a1 1 0 0 0 1 1h0 8.622a1 1 0 0 0 1-1h0v-5.001h-.369l-.114-.002-.162-.001c-.123-.003-.245-.008-.367-.015l-.082-.005-.221-.016-.144-.013-.244-.026-.049-.006-.266-.035-.089-.013a11.66 11.66 0 0 1-.978-.191l-.084-.021-.193-.05-.171-.047-.186-.054-.077-.023-.225-.072-.114-.038a11.93 11.93 0 0 1-.593-.22l-.159-.065-.095-.04-.185-.081-.142-.065-.142-.067-.118-.058-.157-.079-.164-.086a11.99 11.99 0 0 1-.543-.307l-.127-.078-.066-.041-.232-.149-.045-.029-.188-.127-.121-.084-.146-.105-.105-.077c-.166-.124-.33-.252-.491-.385l-.117-.098-.145-.124-.098-.086-.143-.129-.105-.097-.119-.113-.124-.12c-.171-.169-.338-.343-.501-.522l-.235-.266-.139-.164-.062-.076-.125-.155-.097-.124a13.42 13.42 0 0 1-.373-.504l-.201-.293.117.173-.199-.297zm89.999.005l-.084.129-.014.02c-.111.165-.224.327-.341.486l-.1.134-.073.096-.107.138-.094.118-.104.127-.156.185-.062.072-.243.271a13.02 13.02 0 0 1-.737.737l-.15.136-.07.062c-.483.426-.996.813-1.535 1.159l-.098.062-.173.107-.099.059-.165.096-.123.069-.163.089-.104.055a11.9 11.9 0 0 1-2.079.851l-.08.024-.22.063-.096.026-.218.056-.096.023a11.44 11.44 0 0 1-.623.129l-.078.014-.188.031-.091.014-.289.039-.133.015-.151.016-.188.017-.152.011-.141.009-.221.01a11.9 11.9 0 0 1-.439.008l.318-.004-.317.004-.342-.001.002 5.001a1 1 0 0 0 .883.993h0l.117.007H99a1 1 0 0 0 1-1h0l-.001-10.762zM75 90H35a2 2 0 0 0-1.995 1.851L33 92v3.999h44V92a2 2 0 0 0-1.851-1.995L75 90zM24 63c5.523 0 10 4.477 10 10h0v4a2 2 0 0 1-2 2h0-6c-5.523 0-10-4.477-10-10h0v-4a2 2 0 0 1 2-2h0zm68 0a2 2 0 0 1 2 2v4c0 5.523-4.477 10-10 10h-6a2 2 0 0 1-2-2v-4c0-5.523 4.477-10 10-10h6zm-28 4a5 5 0 0 1 5 5h0v2a5 5 0 0 1-5 5h0-18a5 5 0 0 1-5-5h0v-2a5 5 0 0 1 5-5h0zm-40 0l-4-.001V69a6 6 0 0 0 6 6h0l4-.001V73a6 6 0 0 0-5.775-5.996h0L24 67zm66-.001L86 67l-.225.004A6 6 0 0 0 80 73v1.999L84 75a6 6 0 0 0 6-6v-2.001zM64 71H46a1 1 0 0 0-1 1h0v2a1 1 0 0 0 1 1h0 18a1 1 0 0 0 1-1h0v-2a1 1 0 0 0-1-1h0zm42-25.001h-4.34v2H106v-2zm-97.66 0H4v2h4.34v-2zm54.9-44.676l.071.15.061.16 6.165 18.365L71 20a2 2 0 0 1 1.995 1.851L73 22a2 2 0 0 1-1.851 1.995L71 24h-2.901a2 2 0 0 1-1.839-1.214l-.057-.15-4.522-13.47-6.275 23.182c-.493 1.82-2.969 1.99-3.738.335l-.065-.155-5.34-14.232-2.081 4.537a2 2 0 0 1-1.663 1.16l-.155.006H39a2 2 0 0 1-.149-3.995L39 20l2.081-.001 3.549-7.737c.717-1.564 2.917-1.537 3.625-.025l.066.156 4.846 12.918 6.378-23.564c.487-1.798 2.889-1.974 3.695-.425z" fill="url(#A)" fill-rule="nonzero"/></svg>