<svg height="110" viewBox="0 0 110 110" width="110" xmlns="http://www.w3.org/2000/svg" xmlns:xlink="http://www.w3.org/1999/xlink"><linearGradient id="a" x1="50%" x2="50%" y1="0%" y2="100%"><stop offset="0" stop-color="#590f85"/><stop offset="1" stop-color="#9237cd"/></linearGradient><g fill="none" fill-rule="evenodd"><path d="m0 0h110v110h-110z"/><path d="m73.7505862 51.8970489c15.2285978 6.1339742 25.2494138 19.2751677 25.2494138 34.0520115 0 5.3009777-1.9063437 9.6494085-5.4800779 13.0147145-2.2473443 2.1162741-5.1148332 3.8093521-8.5364435 5.1337741-1.0298606.398634-2.188445-.11163-2.5877707-1.139706-.3993258-1.028076.1118236-2.184653 1.1416842-2.583286 2.9701376-1.1496679 5.3986106-2.583534 7.2377774-4.3154365 2.7780419-2.6160201 4.2248305-5.9161912 4.2248305-10.1100601 0-13.3454689-9.3636524-25.3238197-23.6875359-30.715831-.18234-.0686392-.3487553-.1610187-.4970493-.272291-4.2216766 3.6971285-9.7563346 5.9385561-15.8154148 5.9385561-6.0237976 0-11.5292627-2.2153995-15.7433978-5.8745406-14.6093983 5.2661082-24.2566022 17.379565-24.2566022 30.9241065 0 7.8282558 5.1071752 12.7413552 14.6381711 15.4882646 3.0182053.86987 6.1079314 1.467636 9.5302696 1.866094l1.0920993.119289 1.1160391.106547c.5643091.050174 1.1382807.09576 1.7229428.137047l1.1838826.076924 1.2142174.065967c.2049989.010109.411338.019783.6190552.029033l1.2631456.050485c.2133821.007593.4282184.014782.6445471.021579l1.3161849.036149c.2224503.005268.4464692.010163.6720945.014698l1.3733352.022961 1.4137194.014804 1.4559306.007159 2.0753861-.001348 1.8692847-.01257 1.1743504-.015407 1.1272719-.021719 1.0891018-.028623 1.05984-.036121 1.0394865-.044211 1.0280413-.052893.5125126-.029888 1.0275767-.067028 1.0384023-.077191c1.1011455-.086753 2.0642499.734027 2.1511538 1.833265.0869039 1.099237-.7353014 2.060673-1.8364469 2.147426l-1.0726607.079773c-.1774718.012401-.354418.024362-.5310286.035898l-1.0571588.064206c-.1760293.009883-.3521034.019366-.5284125.028462l-1.0621968.05003-1.0769664.041352c-.1812323.006203-.3634604.012071-.5468745.017616l-1.1162372.029495-1.1538288.022365-1.2005492.015853-1.2563983.009958-2.0092838.005239-1.5266704-.003663-1.4826173-.011365-1.4405518-.019629-1.4004738-.028457-1.3623835-.037846-1.3262806-.047799c-.2181487-.008827-.4348758-.018092-.6502229-.027807l-1.2758531-.063783c-.83997-.046246-1.659184-.100065-2.4602923-.162207l-1.1884142-.09955c-4.5060734-.406255-8.4573328-1.100103-12.3575869-2.224187-11.0619337-3.188138-17.5286532-9.4091178-17.5286532-19.3246466 0-14.8011717 10.053243-27.9348986 25.250476-34.052973-2.085618-2.6000425-3.6383906-5.6442385-4.4948925-8.9674241-.9692672.5957727-2.1008125.9544361-3.312997.9961871l-.2385865.0041026h-.408c-3.6734691 0-6.6662029-2.9095242-6.7918903-6.5460505l-.0041097-.238173v-6.3968959c0-3.3001122 2.3604037-6.049878 5.4877974-6.6586448 4.1730993-12.4753512 15.5555104-21.0891888 28.5765281-21.0891888 12.9697271 0 24.3272757 8.5474531 28.5377949 20.9752583 3.4889797.2006799 6.2726479 3.0299678 6.3937699 6.5344023l.0041097.238173v6.3968959c0 3.6671036-2.9145748 6.6546513-6.5574135 6.7801209l-.2385865.0041026h-.408c-.7569798 0-1.4850532-.1235485-2.1650892-.351548l-2.5637051.0006024c-.8849778 3.0707145-2.3685968 5.8883966-4.3166195 8.3190415zm-18.7505862-34.9213088c-11.045695 0-20 8.9387885-20 19.9653429s8.954305 19.9653429 20 19.9653429c8.7149004 0 16.1279124-5.5643882 18.8683617-13.3283316l-17.2683617-.0000946c-1.1045695 0-2-.8938788-2-1.9965343 0-1.0525347.8158778-1.9148412 1.8507377-1.991058l.1492623-.0054763 18.2262645-.0005485c.1145958-.8648595.1737355-1.7471851.1737355-2.6432996 0-11.0265544-8.954305-19.9653429-20-19.9653429zm-26.796 10.9809386h-.408c-1.486996 0-2.7028721 1.1587907-2.7908973 2.6211255l-.0051027.1700294v6.3968959c0 1.4844193 1.1608022 2.6981885 2.6256755 2.786061l.1703245.0050939h.408c1.486996 0 2.7028721-1.1587907 2.7908973-2.6211255l.0051027-.1700294v-6.3968959c0-1.5415123-1.2518118-2.7911549-2.796-2.7911549zm55 0h-.408c-1.486996 0-2.7028721 1.1587907-2.7908973 2.6211255l-.0051027.1700294v6.3968959c0 1.4844193 1.1608022 2.6981885 2.6256755 2.786061l.1703245.0050939h.408c1.486996 0 2.7028721-1.1587907 2.7908973-2.6211255l.0051027-.1700294v-6.3968959c0-1.5415123-1.2518118-2.7911549-2.796-2.7911549zm-28.1396745-20.96361011c-10.9288024 0-20.5607227 7.04610391-24.4459113 17.41217291 1.1063516.4197512 2.0742154 1.1193807 2.8169065 2.0121901 3.9011403-7.9563459 12.0920232-13.4347601 21.5646793-13.4347601 9.8058402 0 18.238153 5.8705791 21.9625099 14.2830867.6399641-1.066591 1.5653548-1.9430009 2.6707221-2.5242409-3.8056008-10.5607091-13.5313259-17.74844871-24.5689065-17.74844871z" fill="url(#a)" fill-rule="nonzero"/></g></svg>