<?xml version="1.0" encoding="UTF-8"?>
<svg width="110px" height="110px" viewBox="0 0 110 110" version="1.1" xmlns="http://www.w3.org/2000/svg" xmlns:xlink="http://www.w3.org/1999/xlink">
    <title>02. Iconography/01. Brand Icons/General/Objects/Rosette/110px/Gradient</title>
    <defs>
        <linearGradient x1="50%" y1="-42.0942272%" x2="50%" y2="207.507934%" id="linearGradient-1">
            <stop stop-color="#590F85" offset="0%"></stop>
            <stop stop-color="#9237CD" offset="100%"></stop>
        </linearGradient>
        <linearGradient x1="50%" y1="-42.0942272%" x2="50%" y2="207.507934%" id="linearGradient-2">
            <stop stop-color="#590F85" offset="0%"></stop>
            <stop stop-color="#9237CD" offset="100%"></stop>
        </linearGradient>
    </defs>
    <g id="02.-Iconography/01.-Brand-Icons/General/Objects/Rosette/110px/Gradient" stroke="none" stroke-width="1" fill="none" fill-rule="evenodd">
        <path d="M72.9038,33.7452 C71.8388,34.0382 71.2128,35.1392 71.5058,36.2032 C71.9108,37.6772 72.1158,39.2062 72.1158,40.7522 C72.1158,50.1892 64.4378,57.8682 54.9998,57.8682 C45.5628,57.8682 37.8838,50.1892 37.8838,40.7522 C37.8838,31.3142 45.5618,23.6362 54.9998,23.6362 C56.1048,23.6362 56.9998,22.7402 56.9998,21.6362 C56.9998,20.5312 56.1048,19.6362 54.9998,19.6362 C43.3568,19.6362 33.8838,29.1082 33.8838,40.7522 C33.8838,52.3952 43.3568,61.8682 54.9998,61.8682 C66.6438,61.8682 76.1158,52.3952 76.1158,40.7522 C76.1158,38.8492 75.8628,36.9612 75.3618,35.1432 C75.0698,34.0782 73.9698,33.4522 72.9038,33.7452" id="Fill-2" fill="url(#linearGradient-1)"></path>
        <rect id="Container" x="0" y="0" width="110" height="110"></rect>
        <path d="M90.7441,44.8072 C87.3371,46.3852 84.7411,49.1712 83.4011,52.7032 C82.1661,55.9592 82.1501,59.4492 83.3341,62.6712 L77.1971,68.8082 C76.5201,68.5632 75.8051,68.3652 75.0631,68.2172 C68.5971,66.9302 62.0751,70.3192 59.3291,76.1992 L56.4731,76.1992 L53.5281,76.1992 L50.6481,76.1992 C50.4761,75.8302 50.2901,75.4712 50.0901,75.1222 C47.0871,69.8912 40.9871,67.0212 34.9481,68.2032 C34.2021,68.3492 33.4791,68.5472 32.7891,68.7942 L26.6481,62.6532 C27.9411,59.1272 27.8071,55.3222 26.2571,51.8772 C24.8281,48.7012 22.3701,46.2222 19.2561,44.7812 L19.2561,36.1032 C22.6631,34.5252 25.2601,31.7382 26.5991,28.2062 C27.8341,24.9512 27.8491,21.4602 26.6661,18.2392 L32.8021,12.1032 C36.3271,13.3962 40.1341,13.2622 43.5791,11.7122 C46.7541,10.2832 49.2331,7.8252 50.6741,4.7112 L59.3521,4.7112 C60.9301,8.1182 63.7161,10.7152 67.2481,12.0542 C70.5041,13.2892 73.9941,13.3052 77.2161,12.1212 L83.3521,18.2572 C82.0581,21.7832 82.1931,25.5892 83.7431,29.0332 C85.1721,32.2092 87.6301,34.6872 90.7441,36.1292 L90.7441,44.8072 Z M75.3461,92.4772 C74.4441,91.8232 73.3091,91.6552 72.3071,92.0322 C71.3051,92.4072 70.5581,93.2802 70.3091,94.3672 L68.1661,103.7372 L59.2821,80.0902 L60.6341,80.0902 C61.4601,80.0902 62.1961,79.5682 62.4691,78.7892 C62.5721,78.4952 62.6891,78.2092 62.8161,77.9312 C62.8581,77.8382 62.9091,77.7502 62.9531,77.6592 C63.0431,77.4762 63.1321,77.2942 63.2311,77.1202 C63.2931,77.0122 63.3611,76.9092 63.4261,76.8042 C63.5191,76.6532 63.6111,76.5012 63.7111,76.3562 C63.7861,76.2472 63.8681,76.1442 63.9461,76.0382 C64.0461,75.9052 64.1461,75.7712 64.2521,75.6432 C64.3381,75.5382 64.4301,75.4382 64.5201,75.3372 C64.6271,75.2172 64.7351,75.0982 64.8481,74.9832 C64.9451,74.8852 65.0441,74.7902 65.1441,74.6962 C65.2601,74.5882 65.3761,74.4812 65.4961,74.3772 C65.6011,74.2872 65.7081,74.2002 65.8171,74.1152 C65.9391,74.0172 66.0641,73.9222 66.1911,73.8302 C66.3031,73.7492 66.4171,73.6702 66.5331,73.5942 C66.6621,73.5072 66.7951,73.4242 66.9301,73.3442 C67.0481,73.2722 67.1661,73.2032 67.2871,73.1362 C67.4261,73.0602 67.5671,72.9892 67.7091,72.9192 C67.8311,72.8592 67.9521,72.7992 68.0771,72.7432 C68.2251,72.6772 68.3761,72.6182 68.5271,72.5592 C68.6501,72.5112 68.7721,72.4612 68.8971,72.4182 C69.0571,72.3622 69.2211,72.3142 69.3851,72.2662 C69.5041,72.2312 69.6221,72.1932 69.7431,72.1612 C69.9231,72.1162 70.1071,72.0792 70.2901,72.0432 C70.3971,72.0222 70.5031,71.9952 70.6121,71.9772 C70.8391,71.9402 71.0701,71.9142 71.3011,71.8912 C71.3671,71.8852 71.4321,71.8732 71.4981,71.8682 C71.7991,71.8442 72.1021,71.8332 72.4071,71.8372 C72.4561,71.8372 72.5061,71.8432 72.5551,71.8442 C72.7911,71.8502 73.0291,71.8632 73.2661,71.8852 L83.1241,98.1212 L75.3461,92.4772 Z M41.8331,103.7372 L39.6901,94.3682 C39.4421,93.2812 38.6961,92.4082 37.6941,92.0322 C37.3411,91.8992 36.9711,91.8342 36.5991,91.8342 C35.9201,91.8342 35.2381,92.0532 34.6541,92.4772 L26.8761,98.1212 L36.7371,71.8772 C36.8961,71.8622 37.0561,71.8552 37.2151,71.8482 C37.3221,71.8432 37.4301,71.8332 37.5361,71.8309193 C37.7431,71.8292 37.9471,71.8382 38.1511,71.8482 C38.2711,71.8532 38.3901,71.8582 38.5101,71.8682 C38.7511,71.8872 38.9921,71.9122 39.2301,71.9492 C39.3601,71.9682 39.4881,71.9982 39.6171,72.0232 C39.7651,72.0512 39.9141,72.0772 40.0601,72.1112 C40.1991,72.1442 40.3341,72.1852 40.4701,72.2242 C40.6041,72.2612 40.7401,72.2972 40.8711,72.3402 C41.0101,72.3842 41.1451,72.4362 41.2811,72.4872 C41.4091,72.5342 41.5361,72.5802 41.6611,72.6322 C41.7961,72.6882 41.9271,72.7492 42.0581,72.8102 C42.1821,72.8682 42.3051,72.9252 42.4261,72.9872 C42.5541,73.0532 42.6801,73.1222 42.8061,73.1942 C42.9251,73.2612 43.0431,73.3302 43.1601,73.4022 C43.2821,73.4772 43.4011,73.5552 43.5191,73.6352 C43.6351,73.7132 43.7481,73.7932 43.8611,73.8762 C43.9741,73.9592 44.0861,74.0452 44.1971,74.1332 C44.3071,74.2222 44.4161,74.3132 44.5241,74.4072 C44.6281,74.4982 44.7321,74.5892 44.8331,74.6842 C44.9401,74.7852 45.0431,74.8902 45.1451,74.9942 C45.2401,75.0922 45.3351,75.1882 45.4261,75.2892 C45.5281,75.4022 45.6241,75.5192 45.7221,75.6372 C45.8061,75.7392 45.8911,75.8392 45.9711,75.9452 C46.0691,76.0722 46.1601,76.2052 46.2511,76.3382 C46.3221,76.4412 46.3961,76.5422 46.4641,76.6482 C46.5611,76.8002 46.6491,76.9592 46.7391,77.1182 C46.7921,77.2112 46.8491,77.3022 46.9001,77.3982 C47.0231,77.6332 47.1371,77.8762 47.2441,78.1232 C47.2531,78.1462 47.2651,78.1672 47.2751,78.1902 L47.2751,78.1912 L47.5731,78.8992 C47.8761,79.6202 48.5831,80.0902 49.3661,80.0902 L50.7191,80.0902 L41.8331,103.7372 Z M93.3341,32.9852 C90.6181,32.0322 88.4721,30.0612 87.2911,27.4362 C86.1101,24.8122 86.0581,21.8992 87.1451,19.2342 L87.4351,18.5242 C87.7311,17.7992 87.5631,16.9672 87.0101,16.4132 L79.0421,8.4452 C78.4581,7.8612 77.5701,7.7092 76.8241,8.0672 C74.2301,9.3132 71.3191,9.4372 68.6281,8.4162 C65.9371,7.3952 63.8401,5.3722 62.7241,2.7182 L62.4271,2.0112 C62.1231,1.2892 61.4161,0.8202 60.6341,0.8202 L49.3661,0.8202 C48.5401,0.8202 47.8041,1.3422 47.5311,2.1212 C46.5771,4.8372 44.6071,6.9832 41.9821,8.1642 C39.3571,9.3452 36.4441,9.3962 33.7791,8.3092 L33.0691,8.0192 C32.3431,7.7242 31.5121,7.8912 30.9581,8.4452 L22.9901,16.4132 C22.4061,16.9972 22.2541,17.8862 22.6121,18.6312 C23.8581,21.2252 23.9821,24.1362 22.9621,26.8272 C21.9411,29.5182 19.9181,31.6142 17.2651,32.7302 L16.5571,33.0272 C15.8351,33.3302 15.3651,34.0372 15.3651,34.8212 L15.3651,46.0892 C15.3651,46.9142 15.8871,47.6512 16.6661,47.9242 C19.3821,48.8782 21.5281,50.8492 22.7091,53.4742 C23.8901,56.0982 23.9421,59.0112 22.8541,61.6762 L22.5641,62.3872 C22.2681,63.1122 22.4361,63.9432 22.9901,64.4972 L30.9581,72.4652 C31.2861,72.7932 31.7131,72.9682 32.1551,73.0092 L22.5791,98.4962 C22.0191,99.9892 22.4441,101.6022 23.6371,102.5102 C24.7661,103.3712 26.2701,103.3702 27.4651,102.5012 L36.1221,96.2182 L38.5081,106.6462 C38.8371,108.0852 39.9661,109.0772 41.3851,109.1722 C41.4581,109.1772 41.5311,109.1802 41.6041,109.1802 C43.0151,109.1802 44.2901,108.2642 44.8221,106.8462 L54.8741,80.0902 L55.1251,80.0902 L65.1781,106.8452 C65.7101,108.2642 66.9851,109.1802 68.3961,109.1802 C68.4691,109.1802 68.5411,109.1772 68.6151,109.1722 C70.0341,109.0772 71.1631,108.0852 71.4921,106.6462 L73.8771,96.2182 L82.5351,102.5012 C83.7301,103.3692 85.2341,103.3712 86.3641,102.5102 C87.5561,101.6012 87.9811,99.9882 87.4211,98.4952 L77.8451,73.0082 C78.2871,72.9662 78.7141,72.7922 79.0421,72.4652 L87.0101,64.4972 C87.5941,63.9132 87.7451,63.0242 87.3881,62.2792 C86.1421,59.6842 86.0181,56.7742 87.0381,54.0822 C88.0591,51.3912 90.0831,49.2952 92.7371,48.1802 L93.4441,47.8822 C94.1651,47.5782 94.6351,46.8712 94.6351,46.0892 L94.6351,34.8212 C94.6351,33.9942 94.1131,33.2592 93.3341,32.9852 L93.3341,32.9852 Z" id="Fill-4" fill="url(#linearGradient-2)"></path>
    </g>
</svg>